<svg xmlns="http://www.w3.org/2000/svg" width="26.25" height="29.999" viewBox="0 0 26.25 29.999">
  <path id="bell" d="M13.125,30.01a3.749,3.749,0,0,0,3.748-3.75h-7.5a3.749,3.749,0,0,0,3.749,3.75Zm12.62-8.772c-1.132-1.216-3.25-3.046-3.25-9.04A9.253,9.253,0,0,0,15,3.107V1.885a1.874,1.874,0,1,0-3.748,0V3.107a9.253,9.253,0,0,0-7.5,9.091c0,5.994-2.118,7.824-3.25,9.04A1.831,1.831,0,0,0,0,22.51a1.877,1.877,0,0,0,1.881,1.875H24.369A1.876,1.876,0,0,0,26.25,22.51a1.83,1.83,0,0,0-.5-1.272Z" transform="translate(0 -0.011)" fill="#6717d1"/>
</svg>
