<svg xmlns="http://www.w3.org/2000/svg" width="38.571" height="30" viewBox="0 0 38.571 30">
  <path id="id-card" d="M35.357,4.754H3.214A3.215,3.215,0,0,0,0,7.967V9.04H38.571V7.968a3.215,3.215,0,0,0-3.214-3.214ZM0,31.54a3.215,3.215,0,0,0,3.214,3.214H35.357a3.215,3.215,0,0,0,3.214-3.214V11.183H0ZM23.571,16a.537.537,0,0,1,.536-.536H33.75a.537.537,0,0,1,.536.536v1.071a.537.537,0,0,1-.536.536H24.107a.537.537,0,0,1-.536-.536Zm0,4.286a.537.537,0,0,1,.536-.536H33.75a.537.537,0,0,1,.536.536v1.071a.537.537,0,0,1-.536.536H24.107a.537.537,0,0,1-.536-.536Zm0,4.286a.537.537,0,0,1,.536-.536H33.75a.537.537,0,0,1,.536.536v1.071a.537.537,0,0,1-.536.536H24.107a.537.537,0,0,1-.536-.536ZM11.786,15.468A4.286,4.286,0,1,1,7.5,19.754a4.286,4.286,0,0,1,4.286-4.286ZM4.493,29.142a4.292,4.292,0,0,1,4.078-2.96H9.12a6.9,6.9,0,0,0,5.33,0H15a4.292,4.292,0,0,1,4.078,2.96,1.055,1.055,0,0,1-1.045,1.326H5.538A1.057,1.057,0,0,1,4.493,29.142Z" transform="translate(0 -4.754)" fill="#b5b5b5"/>
</svg>
