<svg xmlns="http://www.w3.org/2000/svg" width="26.25" height="30" viewBox="0 0 26.25 30">
  <path id="calendar-check" d="M25.547,9.375H.7a.7.7,0,0,1-.7-.7V6.562A2.812,2.812,0,0,1,2.813,3.75H5.625V.7a.7.7,0,0,1,.7-.7H8.672a.7.7,0,0,1,.7.7V3.75h7.5V.7a.7.7,0,0,1,.7-.7h2.344a.7.7,0,0,1,.7.7V3.75h2.813A2.812,2.812,0,0,1,26.25,6.563V8.672a.7.7,0,0,1-.7.7ZM.7,11.25H25.547a.7.7,0,0,1,.7.7V27.187A2.812,2.812,0,0,1,23.437,30H2.813A2.812,2.812,0,0,1,0,27.187V11.953a.7.7,0,0,1,.7-.7Zm19.529,5.622-1.65-1.664a.7.7,0,0,0-.994,0l-6.213,6.163L8.68,18.651a.7.7,0,0,0-.994,0L6.022,20.3a.7.7,0,0,0,0,.994l4.84,4.879a.7.7,0,0,0,.994,0l8.376-8.309a.7.7,0,0,0,0-.994Z" transform="translate(0)" fill="#6717d1"/>
</svg>
