<svg xmlns="http://www.w3.org/2000/svg" xmlns:xlink="http://www.w3.org/1999/xlink" width="100" height="100" viewBox="0 0 100 100">
  <defs>
    <clipPath id="clip-path">
      <rect id="grid" width="100" height="100" fill="#fff" stroke="#707070" stroke-width="1"/>
    </clipPath>
  </defs>
  <g id="icone" clip-path="url(#clip-path)">
    <g id="phone-new-message" transform="translate(5.876 0.986)">
      <path id="Caminho_125" data-name="Caminho 125" d="M102.5,132.518A5.008,5.008,0,0,1,95.74,134.5L74,122.433a4.991,4.991,0,0,1-1.979-6.764L98.906,66.5a4.991,4.991,0,0,1,6.781-1.962l21.805,12.047a4.974,4.974,0,0,1,1.979,6.764Z" transform="translate(-41.855 -37.088)" fill="none" stroke="#4550e5" stroke-linecap="round" stroke-linejoin="round" stroke-width="1.721"/>
      <rect id="Retângulo_14" data-name="Retângulo 14" width="46.106" height="34.85" transform="matrix(0.481, -0.877, 0.877, 0.481, 32.485, 74.176)" fill="none" stroke="#4550e5" stroke-linecap="round" stroke-linejoin="round" stroke-width="1.721"/>
      <line id="Linha_45" data-name="Linha 45" x2="1.084" y2="0.602" transform="translate(76.723 40.203)" fill="none" stroke="#4550e5" stroke-linecap="round" stroke-linejoin="round" stroke-width="1.721"/>
      <line id="Linha_46" data-name="Linha 46" x2="7.022" y2="3.958" transform="translate(66.465 34.627)" fill="none" stroke="#4550e5" stroke-linecap="round" stroke-linejoin="round" stroke-width="1.721"/>
      <path id="Caminho_126" data-name="Caminho 126" d="M86.549,64.693V78.925a3.442,3.442,0,0,1-3.442,3.442H71.06v3.786a1.945,1.945,0,0,1-1.222,1.721,2,2,0,0,1-2.168-.413L62.507,82.3H45.3a3.442,3.442,0,0,1-3.442-3.442V52.387A3.442,3.442,0,0,1,45.3,48.945H63.781" transform="translate(-41.855 -37.088)" fill="none" stroke="#4550e5" stroke-linecap="round" stroke-linejoin="round" stroke-width="1.721"/>
      <circle id="Elipse_8" data-name="Elipse 8" cx="11.875" cy="11.875" r="11.875" transform="translate(26.882)" fill="none" stroke="#4550e5" stroke-linecap="round" stroke-linejoin="round" stroke-width="1.721"/>
      <line id="Linha_47" data-name="Linha 47" y2="5.937" transform="translate(38.757 4.939)" fill="none" stroke="#4550e5" stroke-linecap="round" stroke-linejoin="round" stroke-width="1.721"/>
      <path id="Caminho_127" data-name="Caminho 127" d="M80.612,54.143a.258.258,0,1,1-.258.258.258.258,0,0,1,.258-.258m0-1.721A1.979,1.979,0,1,0,82.591,54.4a1.979,1.979,0,0,0-1.979-1.979Z" transform="translate(-41.855 -37.088)" fill="#4550e5"/>
      <line id="Linha_48" data-name="Linha 48" x2="18.811" transform="translate(8.072 23.75)" fill="none" stroke="#4550e5" stroke-linecap="round" stroke-linejoin="round" stroke-width="1.721"/>
      <line id="Linha_49" data-name="Linha 49" x2="25.729" transform="translate(8.072 29.687)" fill="none" stroke="#4550e5" stroke-linecap="round" stroke-linejoin="round" stroke-width="1.721"/>
      <line id="Linha_50" data-name="Linha 50" x2="25.729" transform="translate(8.072 35.625)" fill="none" stroke="#4550e5" stroke-linecap="round" stroke-linejoin="round" stroke-width="1.721"/>
      <circle id="Elipse_9" data-name="Elipse 9" cx="0.998" cy="0.998" r="0.998" transform="translate(44.385 85.982)" fill="none" stroke="#4550e5" stroke-linejoin="round" stroke-width="1.721"/>
    </g>
  </g>
</svg>
