<svg id="logo-dark-min" xmlns="http://www.w3.org/2000/svg" width="150.699" height="37.35" viewBox="0 0 150.699 37.35">
  <defs>
    <style>
      .cls-1, .cls-2 {
        fill-rule: evenodd;
      }

      .cls-2 {
        fill: #6e6e6e;
      }
    </style>
  </defs>
  <path id="Teach" class="cls-1" d="M662.739,131.526h3.776v-17.6h6.768v-3.079H656v3.079h6.739v17.6Zm23.411-7.7a7.783,7.783,0,0,0-1.757-5.388,6.1,6.1,0,0,0-4.778-1.961,7.044,7.044,0,0,0-3.689.973,6.645,6.645,0,0,0-2.527,2.716,8.542,8.542,0,0,0-.9,3.979,7.475,7.475,0,0,0,2.062,5.577,7.72,7.72,0,0,0,5.664,2.033,9.734,9.734,0,0,0,3.094-.508,8.171,8.171,0,0,0,2.571-1.351l-1.046-2.5a7.242,7.242,0,0,1-4.473,1.568,4.142,4.142,0,0,1-3.151-1.118,5.3,5.3,0,0,1-1.176-3.471h10.108v-.552Zm-6.448-4.735a3.053,3.053,0,0,1,2.281.842,4.069,4.069,0,0,1,1,2.5h-6.826a4.2,4.2,0,0,1,1.176-2.483,3.322,3.322,0,0,1,2.367-.857Zm19.984-2.237v2.208a4.719,4.719,0,0,0-1.917-1.9,5.849,5.849,0,0,0-2.847-.683,6,6,0,0,0-3.369.973,6.482,6.482,0,0,0-2.31,2.73,9.331,9.331,0,0,0-.827,4.023,9.186,9.186,0,0,0,.813,3.979,6.136,6.136,0,0,0,2.295,2.643,6.253,6.253,0,0,0,3.4.929,5.841,5.841,0,0,0,2.847-.683,4.717,4.717,0,0,0,1.917-1.9v2.353h3.572V116.858Zm-3.776,12.054a3.46,3.46,0,0,1-2.833-1.22,5.353,5.353,0,0,1-1-3.486,5.729,5.729,0,0,1,1-3.587,3.348,3.348,0,0,1,2.8-1.293,3.383,3.383,0,0,1,2.818,1.249,5.644,5.644,0,0,1,.987,3.573,5.542,5.542,0,0,1-.987,3.515,3.35,3.35,0,0,1-2.788,1.249h0Zm17.95,2.847a9.769,9.769,0,0,0,3.108-.494,6.443,6.443,0,0,0,2.411-1.365l-1.017-2.556a7.334,7.334,0,0,1-1.975,1.162,5.656,5.656,0,0,1-2.062.407,3.93,3.93,0,0,1-3.094-1.22,6.3,6.3,0,0,1,.014-7.1,3.915,3.915,0,0,1,3.079-1.234,5.847,5.847,0,0,1,2.062.392,7.049,7.049,0,0,1,1.975,1.147l1.017-2.556a5.914,5.914,0,0,0-2.339-1.365A9.454,9.454,0,0,0,714,116.48a8,8,0,0,0-3.993.973,6.741,6.741,0,0,0-2.673,2.716,9.205,9.205,0,0,0-.043,8.031,6.317,6.317,0,0,0,2.585,2.629,8.1,8.1,0,0,0,3.979.929Zm16.353-15.278a5.921,5.921,0,0,0-2.788.654,5.175,5.175,0,0,0-2,1.844v-8.83h-3.6v21.378h3.6v-8.307a3.878,3.878,0,0,1,1.017-2.8,3.531,3.531,0,0,1,2.672-1.06,2.537,2.537,0,0,1,2.062.8,3.937,3.937,0,0,1,.669,2.542v8.829h3.631v-9q0-6.041-5.258-6.042h0Z" transform="translate(-609.23 -102.277)"/>
  <path id="_.me" data-name=".me" class="cls-2" d="M1806.41,308.632v1.052h1.008v-1.052Zm11.13-6.535a2.957,2.957,0,0,0-1.52.385,2.319,2.319,0,0,0-.97,1.082,2.173,2.173,0,0,0-2.312-1.467,2.558,2.558,0,0,0-1.445.408,2.4,2.4,0,0,0-.911,1.163l-.1-1.393h-.593a15.6,15.6,0,0,1,.119,2.045v5.365h.607v-4.313a2.861,2.861,0,0,1,.637-1.956,2.188,2.188,0,0,1,1.733-.726,1.645,1.645,0,0,1,1.379.548,2.809,2.809,0,0,1,.43,1.734v4.713h.623v-4.313a2.861,2.861,0,0,1,.637-1.956,2.171,2.171,0,0,1,1.719-.726,1.626,1.626,0,0,1,1.364.548,2.811,2.811,0,0,1,.43,1.734v4.713h.622v-4.772q0-2.815-2.445-2.816Zm10.966,3.72v-.178a3.863,3.863,0,0,0-.807-2.608,2.8,2.8,0,0,0-2.231-.934,3.322,3.322,0,0,0-1.785.482,3.229,3.229,0,0,0-1.208,1.356,4.511,4.511,0,0,0-.43,2.015,3.963,3.963,0,0,0,.955,2.816,3.388,3.388,0,0,0,2.6,1.023,4.368,4.368,0,0,0,1.548-.282,3.389,3.389,0,0,0,1.223-.756l-.3-.534a4.113,4.113,0,0,1-1.2.734,3.65,3.65,0,0,1-1.3.23,2.638,2.638,0,0,1-2.1-.837,3.521,3.521,0,0,1-.733-2.393v-.133Zm-3.038-3.157a2.231,2.231,0,0,1,1.7.659,2.979,2.979,0,0,1,.711,1.889h-5.1a3.144,3.144,0,0,1,.882-1.875,2.5,2.5,0,0,1,1.8-.674Z" transform="translate(-1677.807 -280.571)"/>
  <path id="GradHatMoldure_1" data-name="GradHatMoldure 1" class="cls-1" d="M40.4-.485V36.848H-1.456V9.2A12.824,12.824,0,0,1-1.385,6.5h.071V6.141h.071V5.856h.071V5.571H-1.1V5.357h.071V5.144h.071V4.931h.071l.071-.285h.071V4.432h.071L-.6,4.147h.071l.071-.285.142-.071.071-.285h.071l.071-.213.142-.071V3.079l.142-.071.071-.213.284-.213V2.439l.568-.5.423-.5h.142l.142-.213.213-.071.071-.142h.142L2.3.869,2.517.8V.727L2.8.656,2.872.514,3.156.443V.372L3.44.3V.229h.213V.158h.142V.087h.213V.016h.141V-.055h.213V-.126h.213V-.2h.284V-.269h.284V-.34H5.5V-.411h.5A8.785,8.785,0,0,1,7.98-.482H40.4ZM1.381,34.07H37.565V2.365H8.831a8.572,8.572,0,0,0-1.916.071H6.206v.071H5.851v.071H5.567v.071H5.284V2.72H5.142v.071H4.929v.071L4.5,3v.071H4.361v.071l-.284.071V3.29l-.213.071L3.794,3.5H3.652l-.284.356H3.226L3.155,4l-.284.213v.142l-.355.288v.142l-.142.071L2.3,5.071H2.232l-.071.285H2.09V5.5H2.019l-.142.428H1.806V6.14H1.735v.142H1.664l-.071.57H1.521V7.21A9.019,9.019,0,0,0,1.38,9.49V34.07ZM34.727,19.179l-.071.784h.071v.142H34.8v.213h.071v1.14a16.58,16.58,0,0,1-.142,2.85l-.5.428h-.78v-.071h-.142v-.071l-.213-.071c-.058-.225-.226-.337-.284-.5V20.248h.071l.071-.356h.071l-.071-.712h.426V13.907l-.78.213v.071h-.142v.071h-.213v.071h-.213V14.4h-.213v.071h-.213v.071l-.639.142v.071l-.426.071V14.9h-.213v.071h-.213v.071H29.9v.071H29.69v.071h-.213v.071h-.213v.071l-.639.142v.071h-.142v.071l-1.277.356v.071h-.213v.071H26.78v.071h-.213v.071h-.212v.071l-.639.142v.071l-.638.142c-.309.124-.684.3-.993.427h-.213v.071h-.213v.071h-.213v.071h-.212v.071H23.02v.071l-.426.071v.071l-.426.071v.071h-.213v.071h-.213v.071h-.213v.071h-.213v.071H21.1V18.1l-.638.142v.071h-.142v.071a6.2,6.2,0,0,1-1.135.285V18.6h-.213v-.071h-.142v-.071h-.213V18.39h-.213v-.071H18.2v-.071h-.213v-.071h-.212v-.071h-.213v-.071h-.213v-.071h-.213v-.071h-.213v-.071h-.213V17.75h-.213v-.071H16.28v-.071l-.639-.142v-.071l-.426-.071c-.309-.124-.684-.3-.993-.428H14.01v-.071H13.8v-.071h-.213v-.071h-.213v-.071h-.213c-1.143-.459-2.413-.826-3.547-1.282H9.4v-.071H9.186v-.071H8.973v-.071H8.76v-.071H8.547v-.071L8.121,14.9V14.83H7.909v-.071H7.7v-.071H7.483v-.071H7.27v-.071H7.057v-.071L6.632,14.4v-.071H6.489v-.071H6.276V14.19H6.064v-.071H5.851v-.071H5.638v-.071l-1.49-.426v-.214a5.922,5.922,0,0,0,1.206-.428l.426-.071v-.071h.142V12.7l.639-.142v-.071l.426-.071V12.34H7.2v-.071h.213V12.2h.213v-.071h.213v-.071h.213v-.071h.213v-.071h.213v-.071h.213v-.071H8.9c.946-.381,2.034-.688,2.98-1.069h.213v-.071h.213V10.56h.213v-.071h.213c.968-.425,2.126-.741,3.122-1.14h.213V9.278h.213V9.207h.213V9.136h.213V9.064l.426-.071V8.922h.213V8.851h.212V8.78h.213V8.709h.213V8.638H18.2V8.567l.426-.071V8.424l.639-.142V8.211a5.449,5.449,0,0,1,.993.285v.071l.638.142c.738.3,1.6.558,2.341.855l2.341.712c2.1.842,4.42,1.434,6.527,2.28l.639.142,1.916.712v.071l-.426.142v5.486A1.353,1.353,0,0,0,34.727,19.179ZM9.54,16.9l7.237,2.422v.071l.426.071v.071h.213v.071h.213v.071h.213v.071h.213v.071h.213v.071l.426.071c.172.068.534.315.851.213V20.1h.213v-.071h.213v-.071h.213v-.071H20.4v-.071h.213v-.071h.213v-.071h.213v-.071l.638-.142v-.071l.426-.071V19.25h.213v-.071h.213v-.071h.213v-.071h.213v-.071h.213v-.071l.426-.071v-.071h.142v-.071l.426-.071v-.071l.426-.071V18.4h.213v-.071h.213v-.071h.213v-.071h.213v-.071h.213v-.071h.213V17.97l.426-.071v-.071H26.5v-.071h.213v-.071h.213v-.071h.213v-.071l.426-.071V17.4H27.7V17.33l1.49-.428v6.127c0,.553.111,1.934-.142,2.209v.142H28.98l-.426.5h-.142l-.071.142-.284.071-.071.142-.284.071v.071H27.56v.071l-.426.142v.071h-.213v.071l-.284.071v.071L26,27.017c-3.322,1.438-9.168,1.482-12.7.213l-.709-.142v-.071h-.142v-.071l-.426-.071V26.8H11.88v-.071h-.213v-.071l-.426-.142v-.071H11.1v-.071h-.142v-.071l-.426-.142-.071-.142h-.142l-.071-.142h-.139l-.5-.573H9.54v-.213c-.047-.08,0-1.792,0-2.209Z" transform="translate(1.492 0.501)"/>
</svg>
