<svg xmlns="http://www.w3.org/2000/svg" width="159.327" height="176.539" viewBox="0 0 159.327 176.539">
  <g id="phone-new-message" transform="translate(2.005 2.005)">
    <path id="Caminho_144" data-name="Caminho 144" d="M221.112,269.664a8.814,8.814,0,0,1-11.9,3.483l-38.256-21.233a8.784,8.784,0,0,1-3.483-11.9l47.313-86.538a8.784,8.784,0,0,1,11.934-3.453l38.377,21.2a8.754,8.754,0,0,1,3.483,11.9Z" transform="translate(-114.371 -101.707)" fill="none" stroke="#4550e5" stroke-linecap="round" stroke-linejoin="round" stroke-width="4.01"/>
    <rect id="Retângulo_51" data-name="Retângulo 51" width="81.146" height="61.337" transform="matrix(0.481, -0.877, 0.877, 0.481, 57.173, 130.55)" fill="none" stroke="#4550e5" stroke-linecap="round" stroke-linejoin="round" stroke-width="4.01"/>
    <line id="Linha_57" data-name="Linha 57" x2="1.908" y2="1.06" transform="translate(135.032 70.757)" fill="none" stroke="#4550e5" stroke-linecap="round" stroke-linejoin="round" stroke-width="4.01"/>
    <line id="Linha_58" data-name="Linha 58" x2="12.358" y2="6.967" transform="translate(116.979 60.943)" fill="none" stroke="#4550e5" stroke-linecap="round" stroke-linejoin="round" stroke-width="4.01"/>
    <path id="Caminho_145" data-name="Caminho 145" d="M176.184,141.758v25.05a6.058,6.058,0,0,1-6.058,6.058h-21.2v6.664a3.423,3.423,0,0,1-2.151,3.029,3.514,3.514,0,0,1-3.816-.727l-9.087-9.087H103.58a6.058,6.058,0,0,1-6.058-6.058V120.1a6.058,6.058,0,0,1,6.058-6.058h32.531" transform="translate(-97.522 -93.173)" fill="none" stroke="#4550e5" stroke-linecap="round" stroke-linejoin="round" stroke-width="4.01"/>
    <circle id="Elipse_13" data-name="Elipse 13" cx="20.9" cy="20.9" r="20.9" transform="translate(47.313)" fill="none" stroke="#4550e5" stroke-linecap="round" stroke-linejoin="round" stroke-width="4.01"/>
    <line id="Linha_59" data-name="Linha 59" y2="10.45" transform="translate(68.212 8.693)" fill="none" stroke="#4550e5" stroke-linecap="round" stroke-linejoin="round" stroke-width="4.01"/>
    <path id="Caminho_146" data-name="Caminho 146" d="M186.7,125.172a.454.454,0,1,1-.454.454.454.454,0,0,1,.454-.454m0-3.029a3.483,3.483,0,1,0,3.483,3.483,3.483,3.483,0,0,0-3.483-3.483Z" transform="translate(-118.485 -95.155)" fill="#4550e5"/>
    <line id="Linha_60" data-name="Linha 60" x2="33.107" transform="translate(14.206 41.8)" fill="none" stroke="#4550e5" stroke-linecap="round" stroke-linejoin="round" stroke-width="4.01"/>
    <line id="Linha_61" data-name="Linha 61" x2="45.283" transform="translate(14.206 52.25)" fill="none" stroke="#4550e5" stroke-linecap="round" stroke-linejoin="round" stroke-width="4.01"/>
    <line id="Linha_62" data-name="Linha 62" x2="45.283" transform="translate(14.206 62.7)" fill="none" stroke="#4550e5" stroke-linecap="round" stroke-linejoin="round" stroke-width="4.01"/>
    <circle id="Elipse_14" data-name="Elipse 14" cx="1.757" cy="1.757" r="1.757" transform="translate(78.117 151.328)" fill="none" stroke="#4550e5" stroke-linejoin="round" stroke-width="4.01"/>
  </g>
</svg>
